#Comment line ignore any data following # character 
#Hierarchical Translation and Rotation (.htr) file 
[Header]	
#Header keywords are followed by a single value 
FileType HTR		#Single word string
DataType HTRS		#Translation followed by rotation and scale data
FileVersion 1		#integer
NumSegments 64		#integer
NumFrames 3		#integer
DataFrameRate 30		#integer, data frame rate in this file
EulerRotationOrder ZYX
CalibrationUnits mm
RotationUnits Degrees
GlobalAxisofGravity Y
BoneLengthAxis Y
ScaleFactor 1.00
[SegmentNames&Hierarchy]
#CHILD	PARENT
Pinger_Root GLOBAL
Pelvis Pinger_Root
L_Hip Pelvis
R_Hip Pelvis
Rear_Leg01 Pelvis
Spine1 Pelvis
L_Leg01 L_Hip
L_Leg02 L_Leg01
L_Leg03 L_Leg02
L_Foot L_Leg03
L_Toe1_01 L_Foot
L_Toe2_01 L_Foot
L_Toe3_01 L_Foot
planeAlignerLeft L_Foot
L_Toe1_02 L_Toe1_01
L_Toe1_03 L_Toe1_02
L_Toe2_02 L_Toe2_01
L_Toe2_03 L_Toe2_02
L_Toe3_02 L_Toe3_01
L_Toe3_03 L_Toe3_02
planeLockWeightLeft planeAlignerLeft
R_Leg01 R_Hip
R_Leg02 R_Leg01
R_Leg03 R_Leg02
R_Foot R_Leg03
planeAlignerRight R_Foot
R_Toe1_01 R_Foot
R_Toe2_01 R_Foot
R_Toe3_01 R_Foot
planeLockWeightRight planeAlignerRight
R_Toe1_02 R_Toe1_01
R_Toe1_03 R_Toe1_02
R_Toe2_02 R_Toe2_01
R_Toe2_03 R_Toe2_02
R_Toe3_02 R_Toe3_01
R_Toe3_03 R_Toe3_02
Rear_Leg02 Rear_Leg01
Rear_Leg03 Rear_Leg02
Rear_Leg04 Rear_Leg03
Rear_Foot Rear_Leg04
planeAlignerCenter Rear_Foot
Rear_Toe1_01 Rear_Foot
Rear_Toe2_01 Rear_Foot
Rear_Toe3_01 Rear_Foot
planeLockWeightCenter planeAlignerCenter
Rear_Toe1_02 Rear_Toe1_01
Rear_Toe1_03 Rear_Toe1_02
Rear_Toe2_02 Rear_Toe2_01
Rear_Toe2_03 Rear_Toe2_02
Rear_Toe3_02 Rear_Toe3_01
Rear_Toe3_03 Rear_Toe3_02
Back_Bone Spine1
Head Spine1
Motor_Bone Back_Bone
Ping_Mechanism Back_Bone
BN_LookIK Head
bottomMouth Head
L_Mouth01 Head
L_mouthFront Head
mouthGun Head
R_Mouth01 Head
R_mouthFront Head
TopMouth Head
weapon_bone Head
[BasePosition]
#SegmentName Tx, Ty, Tz, Rx, Ry, Rz, BoneLength
Pinger_Root 0.000000 0.000000 0.000000 -90.000000 0.000000 0.000000 10.000000 
Pelvis 0.000000 0.000000 0.000000 0.000000 0.000000 0.000000 10.000000 
L_Hip 0.000000 0.000000 0.000000 0.000000 0.000000 0.000000 10.000000 
R_Hip 0.000000 0.000000 0.000000 0.000000 0.000000 0.000000 10.000000 
Rear_Leg01 0.000000 0.000000 0.000000 0.000000 0.000000 0.000000 10.000000 
Spine1 0.000000 0.000000 0.000000 0.000000 0.000000 0.000000 10.000000 
L_Leg01 0.000000 0.000000 0.000000 0.000000 0.000000 0.000000 10.000000 
L_Leg02 0.000000 0.000000 0.000000 0.000000 0.000000 0.000000 10.000000 
L_Leg03 0.000000 0.000000 0.000000 0.000000 0.000000 0.000000 10.000000 
L_Foot 0.000000 0.000000 0.000000 0.000000 0.000000 0.000000 10.000000 
L_Toe1_01 0.000000 0.000000 0.000000 0.000000 0.000000 0.000000 10.000000 
L_Toe2_01 0.000000 0.000000 0.000000 0.000000 0.000000 0.000000 10.000000 
L_Toe3_01 0.000000 0.000000 0.000000 0.000000 0.000000 0.000000 10.000000 
planeAlignerLeft 0.000000 0.000000 0.000000 0.000000 0.000000 0.000000 10.000000 
L_Toe1_02 0.000000 0.000000 0.000000 0.000000 0.000000 0.000000 10.000000 
L_Toe1_03 0.000000 0.000000 0.000000 0.000000 0.000000 0.000000 10.000000 
L_Toe2_02 0.000000 0.000000 0.000000 0.000000 0.000000 0.000000 10.000000 
L_Toe2_03 0.000000 0.000000 0.000000 0.000000 0.000000 0.000000 10.000000 
L_Toe3_02 0.000000 0.000000 0.000000 0.000000 0.000000 0.000000 10.000000 
L_Toe3_03 0.000000 0.000000 0.000000 0.000000 0.000000 0.000000 10.000000 
planeLockWeightLeft 0.000000 0.000000 0.000000 0.000000 0.000000 0.000000 10.000000 
R_Leg01 0.000000 0.000000 0.000000 0.000000 0.000000 0.000000 10.000000 
R_Leg02 0.000000 0.000000 0.000000 0.000000 0.000000 0.000000 10.000000 
R_Leg03 0.000000 0.000000 0.000000 0.000000 0.000000 0.000000 10.000000 
R_Foot 0.000000 0.000000 0.000000 0.000000 0.000000 0.000000 10.000000 
planeAlignerRight 0.000000 0.000000 0.000000 0.000000 0.000000 0.000000 10.000000 
R_Toe1_01 0.000000 0.000000 0.000000 0.000000 0.000000 0.000000 10.000000 
R_Toe2_01 0.000000 0.000000 0.000000 0.000000 0.000000 0.000000 10.000000 
R_Toe3_01 0.000000 0.000000 0.000000 0.000000 0.000000 0.000000 10.000000 
planeLockWeightRight 0.000000 0.000000 0.000000 0.000000 0.000000 0.000000 10.000000 
R_Toe1_02 0.000000 0.000000 0.000000 0.000000 0.000000 0.000000 10.000000 
R_Toe1_03 0.000000 0.000000 0.000000 0.000000 0.000000 0.000000 10.000000 
R_Toe2_02 0.000000 0.000000 0.000000 0.000000 0.000000 0.000000 10.000000 
R_Toe2_03 0.000000 0.000000 0.000000 0.000000 0.000000 0.000000 10.000000 
R_Toe3_02 0.000000 0.000000 0.000000 0.000000 0.000000 0.000000 10.000000 
R_Toe3_03 0.000000 0.000000 0.000000 0.000000 0.000000 0.000000 10.000000 
Rear_Leg02 0.000000 0.000000 0.000000 0.000000 0.000000 0.000000 10.000000 
Rear_Leg03 0.000000 0.000000 0.000000 0.000000 0.000000 0.000000 10.000000 
Rear_Leg04 0.000000 0.000000 0.000000 0.000000 0.000000 0.000000 10.000000 
Rear_Foot 0.000000 0.000000 0.000000 0.000000 0.000000 0.000000 10.000000 
planeAlignerCenter 0.000000 0.000000 0.000000 0.000000 0.000000 0.000000 10.000000 
Rear_Toe1_01 0.000000 0.000000 0.000000 0.000000 0.000000 0.000000 10.000000 
Rear_Toe2_01 0.000000 0.000000 0.000000 0.000000 0.000000 0.000000 10.000000 
Rear_Toe3_01 0.000000 0.000000 0.000000 0.000000 0.000000 0.000000 10.000000 
planeLockWeightCenter 0.000000 0.000000 0.000000 0.000000 0.000000 0.000000 10.000000 
Rear_Toe1_02 0.000000 0.000000 0.000000 0.000000 0.000000 0.000000 10.000000 
Rear_Toe1_03 0.000000 0.000000 0.000000 0.000000 0.000000 0.000000 10.000000 
Rear_Toe2_02 0.000000 0.000000 0.000000 0.000000 0.000000 0.000000 10.000000 
Rear_Toe2_03 0.000000 0.000000 0.000000 0.000000 0.000000 0.000000 10.000000 
Rear_Toe3_02 0.000000 0.000000 0.000000 0.000000 0.000000 0.000000 10.000000 
Rear_Toe3_03 0.000000 0.000000 0.000000 0.000000 0.000000 0.000000 10.000000 
Back_Bone 0.000000 0.000000 0.000000 0.000000 0.000000 0.000000 10.000000 
Head 0.000000 0.000000 0.000000 0.000000 0.000000 0.000000 10.000000 
Motor_Bone 0.000000 0.000000 0.000000 0.000000 0.000000 0.000000 10.000000 
Ping_Mechanism 0.000000 0.000000 0.000000 0.000000 0.000000 0.000000 10.000000 
BN_LookIK 0.000000 0.000000 0.000000 0.000000 0.000000 0.000000 10.000000 
bottomMouth 0.000000 0.000000 0.000000 0.000000 0.000000 0.000000 10.000000 
L_Mouth01 0.000000 0.000000 0.000000 0.000000 0.000000 0.000000 10.000000 
L_mouthFront 0.000000 0.000000 0.000000 0.000000 0.000000 0.000000 10.000000 
mouthGun 0.000000 0.000000 0.000000 0.000000 0.000000 0.000000 10.000000 
R_Mouth01 0.000000 0.000000 0.000000 0.000000 0.000000 0.000000 10.000000 
R_mouthFront 0.000000 0.000000 0.000000 0.000000 0.000000 0.000000 10.000000 
TopMouth 0.000000 0.000000 0.000000 0.000000 0.000000 0.000000 10.000000 
weapon_bone 0.000000 0.000000 0.000000 0.000000 0.000000 0.000000 10.000000 
#Beginning of Data. Separated by tabs
#Fr	Tx	Ty	Tz	Rx	Ry	Rz	SF
[Pinger_Root]
15 0.000000 0.000000 0.000000 -0.000076 0.000007 10.515119 0.000000
16 0.000000 0.000000 0.000000 -0.000076 0.000009 13.175824 0.000000
17 0.000000 0.000000 0.000000 -0.000075 0.000011 15.843755 0.000000
[Pelvis]
15 1013.053406 848.912842 4371.628906 -27.557867 -82.743446 27.973713 4567.062988
16 1110.775635 769.558655 4347.128906 -28.436314 -82.656120 29.290228 4552.314941
17 1173.938599 661.150879 4329.471191 -31.559029 -82.638298 33.329460 4534.266602
[L_Hip]
15 5.766392 125.831482 872.656799 160.158691 -45.484905 122.312202 881.701050
16 5.766392 125.831482 872.656799 160.158691 -45.484913 122.312202 881.701050
17 5.766392 125.831482 872.656799 160.158691 -45.484905 122.312202 881.701050
[R_Hip]
15 5.765438 125.836372 -872.654907 38.087830 49.812672 125.703735 881.699829
16 5.765438 125.836372 -872.654907 38.087845 49.812691 125.703735 881.699829
17 5.765438 125.836372 -872.654907 38.087841 49.812687 125.703735 881.699829
[Rear_Leg01]
15 -192.298416 -925.602966 -0.001907 -173.664841 -13.108721 -161.413956 945.367432
16 -192.298416 -925.602966 -0.001907 -170.313202 -15.778358 -163.771652 945.367432
17 -192.298416 -925.602966 -0.001907 -167.552582 -18.346598 -165.419540 945.367432
[Spine1]
15 290.604584 5.007505 0.000477 15.033035 -20.941729 19.340485 290.647736
16 290.604584 5.007505 0.000477 16.323698 -21.555500 19.097471 290.647736
17 290.604584 5.007505 0.000477 17.622688 -22.163992 18.838547 290.647736
[L_Leg01]
15 761.932007 -0.002384 -0.069261 18.465822 3.781637 -22.224308 761.932068
16 761.932007 -0.002384 -0.069261 11.372132 15.175233 -22.888428 761.932068
17 761.932007 -0.002384 -0.069261 4.510433 26.857939 -25.788921 761.932068
[L_Leg02]
15 1441.140503 -0.000954 -0.000715 4.184371 0.316073 -129.643295 1441.140503
16 1441.140503 -0.000954 -0.000715 1.540493 0.130911 -128.709625 1441.140503
17 1441.140503 -0.000954 -0.000715 -1.213132 0.158585 -116.740082 1441.140503
[L_Leg03]
15 1686.963989 -0.000715 -0.000954 -0.064007 0.032670 127.293037 1686.963989
16 1686.963989 -0.000715 -0.000954 -0.057728 0.029769 125.970108 1686.963989
17 1686.963989 -0.000715 -0.000954 -0.029907 0.014794 118.427010 1686.963989
[L_Foot]
15 3041.570068 -30.715107 11.297464 -41.342571 42.217857 35.084930 3041.746094
16 3041.570068 -30.715107 11.297464 -45.775349 29.911192 37.208588 3041.746094
17 3041.570068 -30.715107 11.297464 -49.966232 16.921793 37.020164 3041.746094
[L_Toe1_01]
15 -188.216690 -224.732346 -21.137953 87.522942 -17.843143 -160.141312 293.899567
16 -188.216690 -224.732346 -21.137953 85.428909 -13.865985 -153.896271 293.899567
17 -188.216690 -224.732346 -21.137953 83.983505 -10.084780 -148.372131 293.899567
[L_Toe2_01]
15 200.746536 -219.926590 148.838394 -72.252472 -13.123326 -83.566040 332.896027
16 200.746536 -219.926590 148.838394 -71.160713 -9.685805 -91.092407 332.896027
17 200.746536 -219.926590 148.838394 -71.116058 -6.496445 -96.366562 332.896027
[L_Toe3_01]
15 188.832520 -219.859131 -191.078659 -89.773720 -1.944057 -86.684830 347.140900
16 188.832520 -219.859131 -191.078659 -89.912758 -0.095442 -96.247406 347.140900
17 188.832520 -219.859131 -191.078659 -90.603561 2.055594 -103.713364 347.140900
[planeAlignerLeft]
15 15.861511 -609.638000 23.044327 66.653152 -86.307320 -168.371338 610.279541
16 15.867925 -739.541443 -14.173833 69.109360 -85.772697 -171.046906 739.847473
17 18.442102 -851.184265 -64.908150 74.109039 -85.576805 -176.157776 853.854675
[L_Toe1_02]
15 413.761139 0.000477 0.000000 0.001486 -14.348635 0.001486 413.761139
16 413.761139 0.000477 0.000000 0.001449 -18.225760 0.001449 413.761139
17 413.761139 0.000477 0.000000 0.001420 -21.494469 0.001420 413.761139
[L_Toe1_03]
15 464.317322 0.000358 -0.000089 -179.998108 71.965454 -179.994568 464.317322
16 464.317322 0.000358 -0.000089 179.993790 83.533310 179.995544 464.317322
17 464.317322 0.000358 -0.000089 0.026372 84.898651 0.026372 464.317322
[L_Toe2_02]
15 342.235809 -0.000477 0.000238 0.001182 -75.948425 0.001182 342.235809
16 342.235809 -0.000477 0.000238 0.001189 -72.058273 0.001189 342.235809
17 342.235809 -0.000477 0.000238 0.001195 -68.168083 0.001195 342.235809
[L_Toe2_03]
15 420.210846 -0.000715 0.000000 -179.990616 84.077057 -179.987122 420.210846
16 420.210846 -0.000715 0.000000 0.026166 84.858559 0.026166 420.210846
17 420.210846 -0.000715 0.000000 0.009373 75.614212 0.009373 420.210846
[L_Toe3_02]
15 329.270111 0.000954 0.000000 0.004677 -83.959381 0.004677 329.270111
16 329.270111 0.000954 0.000000 0.001176 -82.109894 0.001176 329.270111
17 329.270111 0.000954 0.000000 0.001179 -79.264832 0.001179 329.270111
[L_Toe3_03]
15 439.137451 -0.001907 0.000954 179.991974 59.005043 179.999237 439.137451
16 439.137451 -0.001907 0.000954 -179.998199 71.477287 -179.994659 439.137451
17 439.137451 -0.001907 0.000954 -179.992142 83.141502 -179.988647 439.137451
[planeLockWeightLeft]
15 -0.000229 0.097961 0.076027 -0.011826 -0.004376 0.005620 0.124002
16 -0.000124 0.097961 0.076046 -0.011826 -0.004376 0.005620 0.124014
17 0.000475 0.097961 0.076065 -0.011826 -0.004376 0.005620 0.124026
[R_Leg01]
15 761.455627 -0.001907 -0.000358 132.822906 4.616968 35.936104 761.455688
16 761.455627 -0.001907 -0.000358 135.174088 7.073178 37.490120 761.455688
17 761.455627 -0.001907 -0.000358 137.373077 9.192236 38.509361 761.455688
[R_Leg02]
15 1441.140625 0.000000 -0.000238 -1.374052 -0.644838 -139.838165 1441.140625
16 1441.140625 0.000000 -0.000238 -1.350500 -0.695236 -140.077301 1441.140625
17 1441.140625 0.000000 -0.000238 -1.487854 -0.798752 -139.647720 1441.140625
[R_Leg03]
15 1686.963989 0.000954 0.001431 0.121092 -0.075913 142.935303 1686.963989
16 1686.963989 0.000954 0.001431 0.126209 -0.080844 144.574493 1686.963989
17 1686.963989 0.000954 0.001431 0.131685 -0.085203 145.575119 1686.963989
[R_Foot]
15 3041.560059 -30.531288 -11.204481 -6.364650 2.968951 70.170959 3041.734131
16 3041.560059 -30.531288 -11.204481 -6.555762 2.083606 70.988243 3041.734131
17 3041.560059 -30.531288 -11.204481 -6.391604 0.868472 71.132652 3041.734131
[planeAlignerRight]
15 46.202545 -497.869293 -334.456635 44.348915 -62.845295 -140.817093 601.556091
16 46.203339 -497.872467 -334.454346 44.262428 -62.890198 -140.740250 601.557495
17 46.204132 -497.875702 -334.452087 44.175655 -62.935017 -140.663101 601.558960
[R_Toe1_01]
15 -188.383347 -224.864899 21.052242 79.684616 34.328648 -173.641327 294.101532
16 -188.383347 -224.864899 21.052242 79.668800 34.260063 -173.659531 294.101532
17 -188.383347 -224.864899 21.052242 79.653000 34.191452 -173.677704 294.101532
[R_Toe2_01]
15 200.637817 -220.002121 -148.787384 -62.938541 8.734132 -42.925037 332.857574
16 200.637817 -220.002121 -148.787384 -62.982998 8.788403 -42.933262 332.857574
17 200.637817 -220.002121 -148.787384 -63.027485 8.842668 -42.941532 332.857574
[R_Toe3_01]
15 188.606735 -220.092957 191.126343 -39.167343 -23.128708 -83.568634 347.192566
16 188.606735 -220.092957 191.126343 -39.243259 -23.113392 -83.528938 347.192566
17 188.606735 -220.092957 191.126343 -39.319149 -23.098022 -83.489281 347.192566
[planeLockWeightRight]
15 999.999695 0.000305 0.076089 -0.011823 -0.004379 -0.000027 999.999695
16 999.999695 0.000305 0.076086 -0.011823 -0.004379 -0.000027 999.999695
17 999.999695 0.000305 0.076083 -0.011823 -0.004379 -0.000027 999.999695
[R_Toe1_02]
15 413.762085 0.000477 -0.000119 0.001388 -25.416637 0.001388 413.762085
16 413.762085 0.000477 -0.000119 0.001388 -25.424013 0.001388 413.762085
17 413.762085 0.000477 -0.000119 0.001388 -25.431385 0.001388 413.762085
[R_Toe1_03]
15 464.317810 0.000000 0.001088 0.005263 64.228180 0.005263 464.317810
16 464.317810 0.000000 0.001088 0.005263 64.228180 0.005263 464.317810
17 464.317810 0.000000 0.001088 0.005263 64.228180 0.005263 464.317810
[R_Toe2_02]
15 342.234741 -0.000954 0.000238 0.001196 -67.643410 0.001196 342.234741
16 342.234741 -0.000954 0.000238 0.001196 -67.625534 0.001196 342.234741
17 342.234741 -0.000954 0.000238 0.001196 -67.625534 0.001196 342.234741
[R_Toe2_03]
15 420.210846 0.000715 -0.000268 0.008573 74.262978 0.008573 420.210846
16 420.210846 0.000715 -0.000268 0.008588 74.291351 0.008588 420.210846
17 420.210846 0.000715 -0.000268 0.008604 74.319710 0.008604 420.210846
[R_Toe3_02]
15 329.270355 -0.000477 -0.000954 0.001179 -78.607254 0.001179 329.270355
16 329.270355 -0.000477 -0.000954 0.001179 -78.568298 0.001179 329.270355
17 329.270355 -0.000477 -0.000954 0.001180 -78.529388 0.001180 329.270355
[R_Toe3_03]
15 439.137939 0.000238 0.001431 -179.988068 85.185982 -179.984573 439.137939
16 439.137939 0.000238 0.001431 -179.987564 85.355362 -179.984070 439.137939
17 439.137939 0.000238 0.001431 -179.987457 85.394699 -179.983948 439.137939
[Rear_Leg02]
15 1162.777710 -0.029802 0.005960 0.256313 -2.976874 -116.125580 1162.777710
16 1162.777710 -0.029802 0.005960 0.201008 -2.716456 -116.040314 1162.777710
17 1162.777710 -0.029802 0.005960 0.257375 -2.976787 -116.166412 1162.777710
[Rear_Leg03]
15 607.192505 -0.013351 -0.073195 0.006525 -0.001949 61.478622 607.192505
16 607.192505 -0.013351 -0.073195 0.006530 -0.001933 61.193359 607.192505
17 607.192505 -0.013351 -0.073195 0.006523 -0.001956 61.590229 607.192505
[Rear_Leg04]
15 995.874512 -0.020504 -0.011921 -0.039783 -0.016994 53.010670 995.874573
16 995.874512 -0.020504 -0.011921 -0.039679 -0.017235 52.315376 995.874573
17 995.874512 -0.020504 -0.011921 -0.039788 -0.016983 53.043850 995.874573
[Rear_Foot]
15 3096.176270 -0.067472 -0.041425 -157.846786 83.306694 35.684448 3096.176270
16 3096.176270 -0.067472 -0.041425 -163.378082 81.937805 30.350704 3096.176270
17 3096.176270 -0.067472 -0.041425 -163.951218 80.786179 28.943819 3096.176270
[planeAlignerCenter]
15 -155.416138 -15.214249 -744.890808 12.236614 -11.861268 -179.997482 761.083374
16 -164.293961 -20.654591 -741.472290 12.240444 -11.757886 -179.656769 759.737000
17 -159.198212 -15.213532 -744.060669 12.240032 -12.151249 -179.998917 761.053101
[Rear_Toe1_01]
15 0.653352 83.966492 -371.173737 18.465055 39.277065 105.156387 380.553192
16 0.653352 83.966492 -371.173737 19.270601 38.991150 106.066132 380.553192
17 0.653352 83.966492 -371.173737 18.894535 39.199162 105.507195 380.553192
[Rear_Toe2_01]
15 178.200760 -294.826019 -362.060547 -22.487354 39.413750 -79.076958 499.765686
16 178.200760 -294.826019 -362.060547 -22.517609 39.150375 -79.192085 499.765686
17 178.200760 -294.826019 -362.060547 -22.900475 39.517204 -79.428688 499.765686
[Rear_Toe3_01]
15 -153.359680 -308.780914 -362.060852 -8.941394 24.911900 -121.943138 499.952881
16 -153.359680 -308.780914 -362.060852 -8.805252 24.542818 -121.730148 499.952881
17 -153.359680 -308.780914 -362.060852 -9.206830 24.690369 -122.134659 499.952881
[planeLockWeightCenter]
15 1000.000244 0.000225 0.076090 -0.011814 -0.004373 -0.000015 1000.000244
16 1000.000244 0.000241 0.076077 -0.011814 -0.004373 -0.000015 1000.000244
17 1000.000122 0.000257 0.076065 -0.011814 -0.004373 -0.000015 1000.000122
[Rear_Toe1_02]
15 379.707825 0.194073 0.000477 -0.000250 -31.789860 0.006939 379.707855
16 379.707825 0.194073 0.000477 -0.000265 -31.990461 0.006947 379.707855
17 379.707825 0.194073 0.000477 -0.000249 -31.769297 0.006938 379.707855
[Rear_Toe1_03]
15 500.129700 0.165701 0.000119 -0.000042 52.497265 0.007344 500.129761
16 500.129700 0.165701 0.000119 0.000073 53.569534 0.007436 500.129761
17 500.129700 0.165701 0.000119 -0.000053 52.392521 0.007335 500.129761
[Rear_Toe2_02]
15 340.494507 0.000238 -0.000954 0.001187 -72.556664 0.001187 340.494507
16 340.494507 0.000238 -0.000954 0.001187 -72.638885 0.001187 340.494507
17 340.494507 0.000238 -0.000954 0.001187 -72.721016 0.001187 340.494507
[Rear_Toe2_03]
15 433.103577 0.000000 0.000238 0.008553 74.225487 0.008553 433.103546
16 433.103577 0.000000 0.000238 0.008674 74.448235 0.008674 433.103546
17 433.103577 0.000000 0.000238 0.008626 74.361282 0.008626 433.103546
[Rear_Toe3_02]
15 340.494141 -0.000358 -0.000477 0.006979 -63.292412 -0.008160 340.494171
16 340.494141 -0.000358 -0.000477 -0.002395 -61.885967 -0.002395 340.494171
17 340.494141 -0.000358 -0.000477 0.006940 -63.153038 -0.008122 340.494171
[Rear_Toe3_03]
15 433.103577 0.001431 -0.000238 -0.000441 60.390606 -0.004058 433.103546
16 433.103577 0.001431 -0.000238 -0.000305 58.562248 -0.003938 433.103546
17 433.103577 0.001431 -0.000238 -0.000427 60.207634 -0.004045 433.103546
[Back_Bone]
15 1312.175781 -701.934692 0.000954 0.000023 -0.000007 -85.606667 1488.125488
16 1312.175781 -701.934692 0.000954 0.000023 -0.000007 -85.606667 1488.125488
17 1312.175781 -701.934692 0.000954 0.000023 -0.000007 -85.606667 1488.125488
[Head]
15 1406.159424 809.709290 0.001431 2.322668 -0.176439 7.649410 1622.625488
16 1406.159424 809.709290 0.001431 2.299948 -0.204544 7.692482 1622.625488
17 1406.159424 809.709290 0.001431 2.277208 -0.232633 7.735564 1622.625488
[Motor_Bone]
15 1158.364380 -417.834747 0.000477 -0.095385 0.076115 -105.915703 1231.419434
16 1158.364380 -417.834747 0.000477 -0.086704 4.222763 -105.667686 1231.419434
17 1158.364380 -417.834747 0.000477 -0.076329 7.905914 -105.446899 1231.419434
[Ping_Mechanism]
15 1224.175537 -428.928833 41.406303 0.000103 -0.000053 82.120995 1297.805908
16 1223.277222 -427.976654 42.198944 0.000103 -0.000053 82.120995 1296.669556
17 1224.817871 -429.017303 41.908058 0.000103 -0.000053 82.120995 1298.457153
[BN_LookIK]
15 193.241119 1380.371704 -0.002861 0.000000 89.965736 -31.038179 1393.832153
16 193.241119 1380.371704 -0.002861 0.000000 89.965736 -31.038179 1393.832153
17 193.241119 1380.371704 -0.002861 0.000000 89.965736 -31.038179 1393.832153
[bottomMouth]
15 -435.092926 615.759399 -0.000954 -0.000022 0.000016 73.527184 753.966492
16 -435.092926 615.759399 -0.000954 -0.000022 0.000016 73.527184 753.966492
17 -435.092926 615.759399 -0.000954 -0.000022 0.000016 73.527184 753.966492
[L_Mouth01]
15 554.440979 7.658243 838.222046 150.204178 23.759130 109.605339 1005.027161
16 554.440979 7.658243 838.222046 150.204178 23.759130 109.605339 1005.027161
17 554.440979 7.658243 838.222046 150.204178 23.759130 109.605339 1005.027161
[L_mouthFront]
15 551.629089 934.514771 339.150421 0.000081 2.804060 79.119301 1136.941284
16 551.629089 934.514771 339.150421 0.000081 2.804060 79.119301 1136.941284
17 551.629089 934.514771 339.150421 0.000081 2.804060 79.119301 1136.941284
[mouthGun]
15 55.332661 1627.420898 0.000000 0.000023 0.000009 -11.038128 1628.361328
16 55.332661 1627.420898 0.000000 0.000023 0.000009 -11.038128 1628.361328
17 55.332661 1627.420898 0.000000 0.000023 0.000009 -11.038128 1628.361328
[R_Mouth01]
15 554.442383 7.659197 -838.223938 29.795891 -23.759109 109.605331 1005.029541
16 554.442383 7.659197 -838.223938 29.795891 -23.759109 109.605331 1005.029541
17 554.442383 7.659197 -838.223938 29.795891 -23.759109 109.605331 1005.029541
[R_mouthFront]
15 551.629089 934.514282 -339.151367 0.000029 -2.803930 79.119133 1136.941162
16 551.629089 934.514282 -339.151367 0.000029 -2.803930 79.119133 1136.941162
17 551.629089 934.514282 -339.151367 0.000029 -2.803930 79.119133 1136.941162
[TopMouth]
15 461.269867 -56.106091 -0.008583 -0.000059 -0.000268 92.025169 464.669525
16 461.269867 -56.106091 -0.008583 -0.000059 -0.000268 92.025169 464.669525
17 461.269867 -56.106091 -0.008583 -0.000059 -0.000268 92.025169 464.669525
[weapon_bone]
15 -987.239868 1448.372803 0.001431 0.000000 89.965736 -31.038221 1752.833740
16 -987.239868 1448.372803 0.001431 0.000000 89.965736 -31.038221 1752.833740
17 -987.239868 1448.372803 0.001431 0.000000 89.965736 -31.038221 1752.833740
